<svg width="23" height="23" viewBox="0 0 23 23" fill="none" xmlns="http://www.w3.org/2000/svg">
<path d="M11.5 0.5C8.58262 0.5 5.78473 1.65893 3.72183 3.72183C1.65893 5.78473 0.5 8.58262 0.5 11.5C0.5 14.4174 1.65893 17.2153 3.72183 19.2782C5.78473 21.3411 8.58262 22.5 11.5 22.5C14.4174 22.5 17.2153 21.3411 19.2782 19.2782C21.3411 17.2153 22.5 14.4174 22.5 11.5C22.5 8.58262 21.3411 5.78473 19.2782 3.72183C17.2153 1.65893 14.4174 0.5 11.5 0.5ZM12.7232 15.4732V12.9674C9.6674 12.9674 7.5268 13.9442 6 16.0826C6.6116 13.0268 8.4442 9.9732 12.7232 9.3616V6.9174L17 11.1942L12.7232 15.4732Z" fill="white"/>
</svg>
