<svg width="21" height="12" viewBox="0 0 21 12" fill="none" xmlns="http://www.w3.org/2000/svg">
<path d="M1.30795 1.94931H19.7243C20.0239 1.94931 20.2666 1.70658 20.2666 1.40799C20.2666 1.1094 20.0239 0.866669 19.7253 0.866669H1.30896C1.00936 0.866669 0.766628 1.1094 0.766628 1.40799C0.766628 1.70658 1.00936 1.94931 1.30795 1.94931ZM0.766628 6.28299C0.766628 5.9844 1.00936 5.74167 1.30795 5.74167H15.3916C15.6902 5.74167 15.9329 5.9844 15.9329 6.28299C15.9329 6.58158 15.6902 6.82431 15.3916 6.82431H1.30795C1.00937 6.82431 0.766628 6.58158 0.766628 6.28299ZM0.766628 11.158C0.766628 10.8594 1.00936 10.6167 1.30795 10.6167H11.0579C11.3565 10.6167 11.5993 10.8594 11.5993 11.158C11.5993 11.4566 11.3565 11.6993 11.0579 11.6993H1.30795C1.00937 11.6993 0.766628 11.4566 0.766628 11.158Z" fill="white"/>
</svg>
