<svg width="18" height="10" viewBox="0 0 18 10" fill="none" xmlns="http://www.w3.org/2000/svg">
<path d="M0.474758 1.18635C0.475788 0.706452 0.766209 0.275987 1.20904 0.0926809C1.65187 -0.0906281 2.16164 0.0102946 2.50146 0.348079L9.23764 7.08425L15.9738 0.348079C16.1963 0.125636 16.498 -6.56547e-08 16.8121 -5.19251e-08C17.1272 -3.81505e-08 17.4289 0.12461 17.6514 0.347051C18.1159 0.809442 18.1159 1.56123 17.6535 2.02465L10.076 9.60208C9.85359 9.82453 9.55184 9.94914 9.23774 9.94914C8.92365 9.94914 8.62192 9.82453 8.39946 9.60208L0.822023 2.02465C0.599581 1.80323 0.47373 1.50147 0.474758 1.18635Z" fill="white"/>
</svg>
