<svg width="46" height="46" viewBox="0 0 46 46" fill="none" xmlns="http://www.w3.org/2000/svg">
<circle cx="23" cy="23" r="23" fill="#0044F1"/>
<path d="M28.516 12.0952H17.4828C16.0545 12.0966 14.685 12.6646 13.675 13.6746C12.6651 14.6845 12.0971 16.054 12.0957 17.4823V28.5155C12.0971 29.9438 12.6651 31.3133 13.675 32.3233C14.685 33.3333 16.0545 33.9013 17.4828 33.9026H28.516C29.9442 33.9007 31.3133 33.3326 32.3232 32.3227C33.333 31.3128 33.9012 29.9437 33.9031 28.5155V17.4823C33.9012 16.0542 33.333 14.685 32.3232 13.6752C31.3133 12.6653 29.9442 12.0971 28.516 12.0952ZM28.4036 18.9782C28.1296 18.9778 27.8619 18.8963 27.6343 18.7438C27.4067 18.5913 27.2295 18.3748 27.1249 18.1216C27.0204 17.8683 26.9933 17.5898 27.0471 17.3212C27.1009 17.0526 27.2331 16.8059 27.427 16.6124C27.621 16.419 27.868 16.2874 28.1367 16.2342C28.4055 16.1811 28.6839 16.2089 28.9369 16.314C29.1899 16.4192 29.406 16.597 29.5579 16.825C29.7098 17.0529 29.7907 17.3208 29.7904 17.5948C29.7901 17.7767 29.7541 17.9567 29.6843 18.1247C29.6145 18.2927 29.5123 18.4452 29.3835 18.5737C29.2547 18.7022 29.1019 18.804 28.9337 18.8734C28.7656 18.9428 28.5855 18.9784 28.4036 18.9782ZM22.9994 17.806C24.0265 17.806 25.0305 18.1106 25.8844 18.6812C26.7384 19.2518 27.404 20.0628 27.797 21.0117C28.19 21.9606 28.2929 23.0047 28.0925 24.012C27.8921 25.0193 27.3976 25.9446 26.6713 26.6708C25.9451 27.3971 25.0198 27.8917 24.0125 28.092C23.0052 28.2924 21.9611 28.1896 21.0122 27.7965C20.0633 27.4035 19.2523 26.7379 18.6817 25.8839C18.1111 25.03 17.8065 24.026 17.8065 22.9989C17.8085 21.6223 18.3562 20.3026 19.3297 19.3292C20.3031 18.3558 21.6228 17.808 22.9994 17.806Z" fill="white"/>
<path d="M22.9996 26.1237C23.6176 26.1237 24.2217 25.9404 24.7355 25.5971C25.2494 25.2538 25.6498 24.7658 25.8863 24.1948C26.1228 23.6239 26.1847 22.9956 26.0641 22.3895C25.9436 21.7834 25.646 21.2267 25.209 20.7897C24.772 20.3527 24.2153 20.0551 23.6092 19.9346C23.0031 19.814 22.3748 19.8759 21.8039 20.1124C21.2329 20.3489 20.7449 20.7493 20.4016 21.2632C20.0583 21.777 19.875 22.3811 19.875 22.9991C19.8759 23.8275 20.2054 24.6218 20.7912 25.2075C21.3769 25.7933 22.1712 26.1228 22.9996 26.1237Z" fill="white"/>
</svg>
