<svg width="46" height="46" viewBox="0 0 46 46" fill="none" xmlns="http://www.w3.org/2000/svg">
<circle cx="23" cy="23" r="23" fill="#0044F1"/>
<path d="M10.8111 34V17.6364H15.3494V34H10.8111ZM13.0909 15.527C12.4162 15.527 11.8374 15.3033 11.3544 14.8558C10.8786 14.4013 10.6406 13.858 10.6406 13.2259C10.6406 12.6009 10.8786 12.0646 11.3544 11.6172C11.8374 11.1626 12.4162 10.9354 13.0909 10.9354C13.7656 10.9354 14.3409 11.1626 14.8168 11.6172C15.2997 12.0646 15.5412 12.6009 15.5412 13.2259C15.5412 13.858 15.2997 14.4013 14.8168 14.8558C14.3409 15.3033 13.7656 15.527 13.0909 15.527ZM23.5233 24.5398V34H18.9849V17.6364H23.3102V20.5234H23.502C23.8642 19.5717 24.4714 18.8189 25.3237 18.2649C26.176 17.7038 27.2093 17.4233 28.4238 17.4233C29.5602 17.4233 30.551 17.6719 31.3961 18.169C32.2413 18.6662 32.8983 19.3764 33.367 20.2997C33.8358 21.2159 34.0701 22.3097 34.0701 23.581V34H29.5318V24.3906C29.5389 23.3892 29.2832 22.608 28.7647 22.0469C28.2463 21.4787 27.5325 21.1946 26.6234 21.1946C26.0126 21.1946 25.4728 21.326 25.0041 21.5888C24.5424 21.8516 24.1802 22.2351 23.9174 22.7393C23.6618 23.2365 23.5304 23.8366 23.5233 24.5398Z" fill="white"/>
</svg>
