<svg width="46" height="46" viewBox="0 0 46 46" fill="none" xmlns="http://www.w3.org/2000/svg">
<circle cx="23" cy="23" r="23" fill="#0044F1"/>
<g clip-path="url(#clip0_1119_1930)">
<path d="M33.333 14.6612L29.5562 30.2271C29.3785 30.9602 28.5565 31.3379 27.8826 30.9898L23.1062 28.5239L20.8476 32.2191C20.233 33.2262 18.6779 32.7893 18.6779 31.6119V27.4945C18.6779 27.1761 18.8112 26.8725 19.0407 26.6503L28.3492 17.764C28.3418 17.6529 28.2233 17.5566 28.1048 17.6381L16.9969 25.3692L13.2646 23.4438C12.3908 22.9921 12.4278 21.7258 13.3312 21.3333L31.7334 13.3134C32.6146 12.9283 33.5625 13.7207 33.333 14.6612Z" fill="white"/>
</g>
<defs>
<clipPath id="clip0_1119_1930">
<rect width="23.697" height="23.697" fill="white" transform="translate(11.1523 11.1514)"/>
</clipPath>
</defs>
</svg>
