<svg width="16" height="16" viewBox="0 0 16 16" fill="none" xmlns="http://www.w3.org/2000/svg">
<path d="M14.9469 1.03033L14.9696 1.053C15.2624 1.3459 15.2624 1.82077 14.9696 2.11366L9.08322 8L14.9696 13.8863C15.2624 14.1792 15.2624 14.6541 14.9696 14.947L14.9469 14.9697C14.654 15.2626 14.1791 15.2626 13.8862 14.9697L7.99989 9.08333L2.11355 14.9697C1.82066 15.2626 1.34578 15.2626 1.05289 14.9697L1.03022 14.947C0.737324 14.6541 0.737324 14.1792 1.03022 13.8863L6.91655 8L1.03022 2.11366C0.737324 1.82077 0.737324 1.3459 1.03022 1.053L1.05289 1.03033C1.34578 0.737438 1.82066 0.737438 2.11355 1.03033L7.99989 6.91667L13.8862 1.03033C14.1791 0.737438 14.654 0.737438 14.9469 1.03033Z" fill="#000014"/>
</svg>
